<?xml version="1.0" encoding="utf-8"?>
<!-- Generator: Adobe Illustrator 24.0.1, SVG Export Plug-In . SVG Version: 6.00 Build 0)  -->
<svg version="1.1" id="Layer_1" xmlns="http://www.w3.org/2000/svg" xmlns:xlink="http://www.w3.org/1999/xlink" x="0px" y="0px"
	 viewBox="0 0 200 200" style="enable-background:new 0 0 200 200;" xml:space="preserve">
<style type="text/css">
	.st0{fill:#664E00;}
	.st1{fill:#FFC300;}
	.st2{fill:#006600;}
	.st3{fill:#00FF00;}
	.st4{fill:#660000;}
	.st5{fill:#FF001C;}
</style>
<path class="st0" d="M143.3,87.5h-26.9H57.2c-4.3,0-7.7,4.5-7.7,10v6c0,5.5,3.5,10,7.7,10H119h24.3c4.3,0,7.7-4.5,7.7-10v-6
	C151,92,147.5,87.5,143.3,87.5z"/>
<path class="st1" d="M104.5,113.5H90.2H54c-2.5,0-4.5-4.5-4.5-10v-6c0-5.5,2-10,4.5-10h34.6h15.8c2.5,0,4.5,4.5,4.5,10v6
	C109,109,107,113.5,104.5,113.5z"/>
<path class="st2" d="M143,52.4h-26.9H57c-4.3,0-7.7,4.5-7.7,10v6c0,5.5,3.5,10,7.7,10h61.7H143c4.3,0,7.7-4.5,7.7-10v-6
	C150.7,56.9,147.3,52.4,143,52.4z"/>
<path class="st3" d="M121.2,78.4h-18.6H55.2c-3.3,0-5.9-4.5-5.9-10v-6c0-5.5,2.7-10,5.9-10h45.3h20.6c3.3,0,5.9,4.5,5.9,10v6
	C127.1,73.9,124.5,78.4,121.2,78.4z"/>
<path class="st4" d="M143,122.4h-26.9H57c-4.3,0-7.7,4.5-7.7,10v6c0,5.5,3.5,10,7.7,10h61.7H143c4.3,0,7.7-4.5,7.7-10v-6
	C150.7,126.9,147.3,122.4,143,122.4z"/>
<path class="st5" d="M87.8,148.4h-10H52.4c-1.8,0-3.2-4.5-3.2-10v-6c0-5.5,1.4-10,3.2-10h24.3h11.1c1.8,0,3.2,4.5,3.2,10v6
	C91,143.9,89.6,148.4,87.8,148.4z"/>
</svg>
